#!OML:ASF I:\golf\golf\golf 2\Subject 1\2002-09-07\Subject1.ASF
:FULLY-SPECIFIED
:DEGREES
525
root -8.39089 17.97 4.80753 -157.361 75.6125 -174.337
lowerback 6.3975 2.0706 2.00551
upperback 7.53721 3.17391 6.3915
thorax 3.99778 1.71593 5.47123
lowerneck -12.3167 2.24706 5.23886
upperneck 37.6953 7.16739 -7.64244
head 15.9183 3.4096 -2.84328
rclavicle -7.15625e-014 1.90833e-014
rhumerus -15.6484 43.8167 -92.3683
rradius 62.6814
rwrist -57.6034
rhand -33.7225 -20.7639
rfingers 7.12502
rthumb -6.91169 -50.631
lclavicle -7.15625e-014 1.90833e-014
lhumerus -17.4782 -47.495 105.664
lradius 65.4598
lwrist 65.3795
lhand -11.6411 65.2308
lfingers 7.12502
lthumb -165.597 85.2889
rfemur -31.9086 -10.6467 17.0968
rtibia 31.3173
rfoot -9.25492 -12.922
rtoes 1.6811
lfemur -34.6428 -0.0922758 -17.3428
ltibia 24.9427
lfoot -6.6144 -19.4809
ltoes 0.769068
526
root -8.38841 17.9715 4.8081 -157.232 75.5261 -174.223
lowerback 6.39003 2.07255 2.0497
upperback 7.50622 3.17802 6.39254
thorax 3.97093 1.71998 5.44585
lowerneck -12.339 2.25406 5.19083
upperneck 37.7037 7.15013 -7.53863
head 15.9182 3.40755 -2.79201
rclavicle -1.27222e-014 4.6118e-014
rhumerus -15.7038 43.7718 -92.348
rradius 62.7205
rwrist -57.4775
rhand -33.5688 -20.8773
rfingers 7.12502
rthumb -6.76333 -50.7493
lclavicle -1.27222e-014 4.6118e-014
lhumerus -17.528 -47.5115 105.691
lradius 65.4784
lwrist 65.3956
lhand -11.5401 65.2148
lfingers 7.12502
lthumb -165.5 85.3119
rfemur -31.8914 -10.6724 17.157
rtibia 31.2946
rfoot -9.29323 -12.9705
rtoes 1.50045
lfemur -34.6569 -0.0956666 -17.2939
ltibia 24.9253
lfoot -6.62903 -19.5257
ltoes 0.516448
527
root -8.38684 17.9712 4.80993 -157.03 75.42 -174.014
lowerback 6.41934 2.08708 2.15578
upperback 7.46894 3.20314 6.3687
thorax 3.91961 1.73805 5.35596
lowerneck -12.3728 2.23913 5.23366
upperneck 37.7294 7.07707 -7.43937
head 15.9281 3.39463 -2.76925
rclavicle -3.33958e-014 -5.40694e-014
rhumerus -15.7702 43.6737 -92.381
rradius 62.7731
rwrist -57.5025
rhand -33.6415 -20.9823
rfingers 7.12502
rthumb -6.83349 -50.852
lclavicle -3.33958e-014 -5.40694e-014
lhumerus -17.6074 -47.608 105.737
lradius 65.4812
lwrist 65.4068
lhand -11.472 65.28
lfingers 7.12502
lthumb -165.434 85.2514
rfemur -31.8493 -10.6426 17.2324
rtibia 31.2577
rfoot -9.31927 -13.0694
rtoes 1.68132
lfemur -34.6708 -0.072108 -17.2225
ltibia 24.9229
lfoot -6.61603 -19.6477
ltoes 0.671468
528
root -8.38557 17.9734 4.81087 -157.034 75.3316 -174.036
lowerback 6.4123 2.09219 2.18042
upperback 7.44659 3.20991 6.34503
thorax 3.9017 1.7426 5.3157
lowerneck -12.4534 2.21483 5.26112
upperneck 37.7603 7.01746 -7.40375
head 15.9566 3.3759 -2.76885
rclavicle 3.81667e-014 6.52014e-014
rhumerus -15.7697 43.5817 -92.3814
rradius 62.7821
rwrist -57.4955
rhand -33.5857 -20.9547
rfingers 7.12502
rthumb -6.77961 -50.8262
lclavicle 3.81667e-014 6.52014e-014
lhumerus -17.6203 -47.7101 105.757
lradius 65.4521
lwrist 65.3716
lhand -11.4086 65.3235
lfingers 7.12502
lthumb -165.373 85.2123
rfemur -31.8306 -10.6479 17.2432
rtibia 31.2284
rfoot -9.31779 -13.1092
rtoes 1.62128
lfemur -34.6988 -0.147884 -17.1665
ltibia 24.9152
lfoot -6.3796 -19.7066
ltoes 1.79842
529
root -8.38348 17.9774 4.80949 -157.119 75.3275 -174.154
lowerback 6.37924 2.09416 2.14706
upperback 7.43569 3.20773 6.31822
thorax 3.90828 1.73948 5.30718
lowerneck -12.5082 2.20994 5.26174
upperneck 37.7618 7.03279 -7.46654
head 15.9761 3.37311 -2.79319
rclavicle 5.725e-014 1.31993e-013
rhumerus -15.7512 43.5153 -92.398
rradius 62.7712
rwrist -57.3116
rhand -33.3988 -21.0572
rfingers 7.12502
rthumb -6.59918 -50.9344
lclavicle 5.725e-014 1.31993e-013
lhumerus -17.6049 -47.7204 105.716
lradius 65.4378
lwrist 65.4068
lhand -11.3326 65.3308
lfingers 7.12502
lthumb -165.3 85.2104
rfemur -31.8373 -10.6812 17.2121
rtibia 31.2123
rfoot -9.32894 -13.0506
rtoes 1.43677
lfemur -34.713 -0.20432 -17.1654
ltibia 24.9006
lfoot -6.20908 -19.6962
ltoes 2.68695
530
root -8.38132 17.9776 4.80844 -157.223 75.3208 -174.273
lowerback 6.37219 2.08485 2.11789
upperback 7.41959 3.19261 6.2934
thorax 3.89592 1.7303 5.29721
lowerneck -12.5098 2.22845 5.24185
upperneck 37.7531 7.08307 -7.50556
head 15.9788 3.38655 -2.79757
rclavicle 2.8625e-014 4.92986e-014
rhumerus -15.8025 43.4842 -92.4667
rradius 62.7894
rwrist -57.1726
rhand -33.2798 -21.2728
rfingers 7.12502
rthumb -6.48431 -51.1535
lclavicle 2.8625e-014 4.92986e-014
lhumerus -17.6147 -47.6653 105.707
lradius 65.4218
lwrist 65.4432
lhand -11.4072 65.3619
lfingers 7.12502
lthumb -165.372 85.174
rfemur -31.8319 -10.7173 17.1844
rtibia 31.1985
rfoot -9.30166 -13.0126
rtoes 1.26682
lfemur -34.7091 -0.167958 -17.221
ltibia 24.8871
lfoot -6.24885 -19.7644
ltoes 2.64126
